<svg width="100%" height="100%" viewBox="0 0 900 600" version="1.1"
    xmlns="http://www.w3.org/2000/svg"
    xmlns:xlink="http://www.w3.org/1999/xlink" xml:space="preserve"
    xmlns:serif="http://www.serif.com/" style="fill-rule:evenodd;clip-rule:evenodd;stroke-linejoin:round;stroke-miterlimit:2;">
    <g transform="matrix(1,0,0,1,491.715,235.945)">
        <path d="M137.4,-135.9C176.7,-98.1 206.4,-49 198.4,-7.9C190.5,33.1 145,66.3 105.6,128.6C66.3,191 33.1,282.5 -27.6,310.1C-88.4,337.7 -176.8,301.4 -221.3,239.1C-265.8,176.8 -266.4,88.4 -252.8,13.6C-239.3,-61.3 -211.6,-122.6 -167.1,-160.4C-122.6,-198.2 -61.3,-212.6 -6.1,-206.5C49,-200.4 98.1,-173.7 137.4,-135.9" style="fill:url(#_Linear1);fill-rule:nonzero;"/>
    </g>
    <defs>
        <linearGradient id="_Linear1" x1="0" y1="0" x2="1" y2="0" gradientUnits="userSpaceOnUse" gradientTransform="matrix(-3.96331,-543.013,622.076,-4.54037,-52.4156,330.754)">
            <stop offset="0" style="stop-color:white;stop-opacity:1"/>
            <stop offset="0.45" style="stop-color:rgb(202,221,224);stop-opacity:1"/>
            <stop offset="1" style="stop-color:rgb(139,162,166);stop-opacity:1"/>
        </linearGradient>
    </defs>
</svg>
